<?xml version="1.0" encoding="UTF-8"?>
<svg xmlns="http://www.w3.org/2000/svg" viewBox="0 0 200 200">
  
    <path d="M40,200 L40,178 Q40,150 78,142 L122,142 Q160,150 160,178 L160,200 Z" fill="#5C3A24"/>
    <path d="M40,200 L40,178 Q40,150 78,142 L86,142 Q66,155 62,178 L62,200 Z" fill="#4b301e" opacity="0.35"/>
    <rect x="86" y="118" width="28" height="30" rx="10" fill="#5C3A24"/>
    <rect x="86" y="118" width="28" height="14" rx="7" fill="#4b301e" opacity="0.3"/>
  
    <ellipse cx="54" cy="86" rx="7" ry="11" fill="#5C3A24"/>
    <ellipse cx="146" cy="86" rx="7" ry="11" fill="#5C3A24"/>
    <ellipse cx="54" cy="86" rx="3.2" ry="5.5" fill="#513320"/>
    <ellipse cx="146" cy="86" rx="3.2" ry="5.5" fill="#513320"/>
  <path d="M100,30 C132,30 148,52 147,78 C146,104 132,126 100,130 C68,126 54,104 53,78 C52,52 68,30 100,30 Z" fill="#5C3A24"/><path d="M62,100 L100,128 L138,100 L134,112 L100,130 L66,112 Z" fill="#482d1c" opacity="0.18"/>
  <ellipse cx="83" cy="75" rx="6.2" ry="6.2" fill="#1c130d"/><ellipse cx="117" cy="75" rx="6.2" ry="6.2" fill="#1c130d"/>
  <path d="M72,62 L92,60" stroke="#00000065" stroke-width="4" stroke-linecap="round"/><path d="M108,60 L128,62" stroke="#00000065" stroke-width="4" stroke-linecap="round"/>
  <path d="M100,77 Q96,89 95,93 Q100,97 105,93" stroke="#00000035" stroke-width="2.2" fill="none" stroke-linecap="round"/>
  <path d="M83,105 Q100,113 117,105 Q100,110 83,105" fill="#0000004a"/>
  
  <path d="M78,168 L92,159 L106,168" fill="none" stroke="#0D665F" stroke-width="2.4" stroke-linecap="round" stroke-linejoin="round" opacity="0.85"/>
</svg>