<?xml version="1.0" encoding="UTF-8"?>
<svg id="a" data-name="Layer 1" xmlns="http://www.w3.org/2000/svg" viewBox="72.37 207.27 449.05 207.27">
  <defs>
    <style>
      .b {
        fill: #e26a27;
      }

      .c {
        fill: #267c7f;
      }

      .d {
        fill: #fffffe;
      }

      .e {
        fill: #f49f1e;
      }
    </style>
  </defs>
  <path class="c" d="M229.9,395.11c-30.13,16.93-67.1,16.06-97.75,1.04-12.53-6.14-24.19-17.68-23.19-32.2l79.52-.38c.7,0,.96-.48,1.12-.7.12-.18.32-.76-.16-.99l-20.85-10.17-33.26-.21c-12.59-.08-24.63-.11-37.1.68-6.44-2.77-7.88-7.04-8.55-14.4-.13-1.42,1.5-2,2.78-2l86.48.06,77.39-.18c6.9-.02,20.4-2.65,19.32,4.05-.59,3.62-1.87,7.54-4.32,10.26-.83.93-2.14,1.23-2.56,2.25l-65.48.02c-.94,0-.33,1.97.55,2.39,6.27,2.96,12.1,6.65,18.84,8.65,8.62,2.56,29.77-2.6,33.15.5,2.11,1.94.05,7.81-3.11,11.88-6.21,7.99-13.89,14.41-22.82,19.43ZM227.59,379.87c-.29-.71-.89-1.54-2-1.55l-93.19-.61c-.5,1.07-.06,1.87.85,2.56,4.7,3.59,9.67,6.33,15.4,8.3,26.04,8.92,55.64,6.57,78.94-8.69Z"/>
  <path class="b" d="M372.76,350.8l-47.58.26c-1.41,0-2.56-.95-2.54-2.48.06-4.24-.78-8.9.45-13.01,1.01-3.37,4.09-5.69,5.96-8.69l25.29-40.49-31.22-1.11c-1.53-3.74-1.88-7.75-1.43-11.74.5-.98,1.55-2.42,2.86-2.36,9.45.43,18.61-.05,28.1-.3,6.45-.17,12.35-.49,18.81.85.91,4.15,2.32,9.73.66,13.85l-22.59,38.11c-2.69,4.53-6.48,7.75-8.79,13.2l31.83.17c2.28,4.18,2.71,9.02.2,13.75Z"/>
  <path class="b" d="M182.5,326.95c-9.22-.63-17.62-.51-26.24-.51-4.78,0-7.85-4.79-6.81-9.22,3.31-14.21,13.97-30.97,28.45-32.28,10.11-.92,21.01,2.99,27.64,10.86,5.34,6.34,8.49,14.38,10.32,22.13,1.14,4.83-2.12,8.67-6.66,9.15-8.8.94-17.38.52-26.7-.12Z"/>
  <path class="b" d="M387.78,349.8c-5.45-2.47-7.91-7.74-8.31-13.25-.68-9.45,4.95-17.12,14.09-19.5,6.33-1.64,12.67-1.7,19.69-1.03,1.51-2.06,1.36-5.24.24-7.81-2.63-6.05-14.26-4.44-22.21-1.73-2.11.72-4.04,1.43-6.5,1-1.18-3.21-1.36-7.23.24-10.48,2.39-4.87,19.53-6.49,28.14-5.51,7.93.9,13.74,6.3,15.59,13.89,1.25,5.11,1.05,10.13.49,15.35l.21,15.84c.05,3.87,1.12,8.95-.92,12.43-2.33,3.03-9.29,2.87-12.02.94-1.94-1.38-1.03-3.92-1.74-6.08-5.29,8.53-17.86,10.08-26.98,5.95ZM409.49,337.88c4.07-3.29,5.62-8.47,4.44-13.24-7.44-.54-17.5,1.23-18.3,7.18-.34,2.53-.16,5.03,2.08,6.56,3.22,2.21,8.45,2.2,11.78-.49Z"/>
  <path class="b" d="M479.87,350.53l-36,.25c-2.52.02-4.85.06-5.56-3.19-.53-2.42-.61-6.08,1.05-8.47l24.2-35.06-23.96-.54c-2.01-2.46-1.65-5.57-1.81-8.71-.08-1.61.56-3.36,2.54-3.39l20.71-.37h17.35c6.04,0,4.64,10.49,3.05,12.78l-23.63,34.12,23.1.33c1.66,5.56,2.36,12.24-1.04,12.27Z"/>
  <path class="b" d="M505.59,349.14c-4.78,2.76-9.77,2.51-15.03.99l.03-56.79c5.09-3.35,15.06-2.13,15.06,1.15l-.06,54.65Z"/>
  <path class="e" d="M211.16,276.04c-2.13,1.9-5.04.24-6.28-.96-1.92-1.85-2.51-4.15-1.9-6.92,2.81-12.83,10.82-24.33,14.86-38.9.53-1.93,1.81-4.97,3.62-5.81,6.24.82,16.79,7.12,14.37,10.97-6.6,10.49-12.46,20.89-18.18,31.84-1.77,3.39-3.52,7.15-6.49,9.79Z"/>
  <path class="e" d="M280.89,319.83l-49.98-1.92c-3.33-2.06-2.83-8.29.2-10.82,16.41-1.86,32.44-3.6,48.98-4.28,4.82-.2,6.6,11.29.8,17.02Z"/>
  <path class="e" d="M188.85,261.01c-.08,2.11-.28,4.16-1.83,5.63-1.95,1.84-8.26,2-9.46-.89-1.81-7.47-1.57-15.13-1.76-22.77l-.69-26.94c4.51-1.91,9.57-2.49,14.28-1.35,2.07.5,2.82,3.3,2.84,5.21.1,13.7-2.82,26.53-3.38,41.11Z"/>
  <path class="e" d="M227.15,294.18c-2.35-1.35-4.4-3.04-5.88-5.23s4.75-7.57,8.87-10.9l27.96-22.59c1.67-1.35,4.8.53,5.89,1.71,3.89,4.19,7.93,9.33,5.12,12.51l-41.96,24.49Z"/>
  <path class="e" d="M163.13,265.36c.86,2.85.58,5.33-1.32,6.99-1.56,1.37-5.2,2.7-6.96.46-9.17-11.69-16.44-24.39-23.44-37.37-1.87-3.46,5.12-7.69,10.15-9.91,2.84-1.25,5.13.33,6.48,2.88,2.77,5.24,4.54,10.69,6.81,16.22,2.82,6.9,6.05,13.35,8.28,20.72Z"/>
  <path class="e" d="M142.51,291.77c-4.5,4.88-29.12-12.56-39.9-17.35-1.7-.75-3.38-1.2-4.09-2.69-2.38-5.03,2.23-13.55,8.68-13.49l20.06,13.3c6.5,4.31,12.72,8.37,18.36,13.85-.64,2.35-1.5,4.63-3.1,6.37Z"/>
  <path class="e" d="M137.28,317.93c-14.82,1.63-29.57-.35-44.2.53-2.81.17-4.93-1.41-5.42-4.05-.56-2.99-.53-5.85.07-8.9l6.62-.91,42.83,3.51c1.38,3.38,1.84,6.84.1,9.83Z"/>
  <path class="b" d="M498.44,284.92c-2.67-.01-5.18-.64-6.78-2.37-1.51-1.63-2.2-4.1-2-6.5.42-5.01,4.22-8,9.06-7.79,4.88.22,8.13,3.7,7.88,8.67-.23,4.57-3.17,8.01-8.16,7.98Z"/>
  <path class="d" d="M227.59,379.87c-23.29,15.26-52.9,17.61-78.94,8.69-5.73-1.96-10.7-4.7-15.4-8.3-.91-.7-1.35-1.5-.85-2.56l93.19.61c1.1,0,1.7.85,2,1.55Z"/>
</svg>